OpenSim_Sub10_CSBaseline_RCS.mot
version=1
nRows=34
nColumns=11
inDegrees=no
endheader
time	Top_Thigh	Med_Thigh	Bot_Thigh	Top_Shank	2nd_Top_Shank	2nd_Bot_Shank	Bot_Shank	BNOx	BNOy	BNOZ
68.33000000	2007.04530422	1975.60989383	539.80479450	1313.16814069	1496.16154519	1315.44096254	1309.12323265	0	0	0
68.34000000	2000.93804036	1976.50527425	542.55462815	1313.10799736	1497.45586560	1318.58880484	1309.24052298	0	0	0
68.35000000	1994.29790419	1977.05561693	545.08039325	1312.89358538	1498.91597611	1321.77504511	1309.36970257	0	0	0
68.36000000	1987.84736644	1977.21839703	547.31825777	1312.53444898	1500.37573798	1324.63858425	1309.50379647	0	0	0
68.37000000	1982.30889784	1976.95108970	549.20438969	1312.04013233	1501.66901247	1326.81832316	1309.63582973	0	0	0
68.38000000	1978.40496915	1976.21117009	550.67495702	1311.42017965	1502.62966084	1327.95316275	1309.75882737	0	0	0
68.39000000	1976.85805108	1974.95611335	551.66612772	1310.68413511	1503.09154436	1327.68200391	1309.86581446	0	0	0
68.40000000	1978.39061439	1973.14339463	552.11406978	1309.84154293	1502.88852430	1325.64374753	1309.94981602	0	0	0
68.41000000	1983.72451448	1970.73057156	551.95485725	1308.90196183	1501.85458625	1321.47761895	1310.00385722	0	0	0
68.42000000	1992.76506781	1967.78465422	550.99989925	1307.89424953	1499.98872898	1315.25335951	1310.02112692	0	0	0
68.43000000	2002.99186341	1964.69779853	548.69032105	1306.90459108	1497.78016721	1308.31966136	1309.99530196	0	0	0
68.44000000	2012.10865217	1961.81986916	544.58590331	1306.00740773	1495.67855490	1301.90482622	1309.92233543	0	0	0
68.45000000	2019.81812631	1959.19640371	538.80249129	1305.21066347	1493.74663796	1296.17668052	1309.80467684	0	0	0
68.46000000	2026.19255154	1956.81667440	531.55873806	1304.51003537	1491.97562896	1291.10698513	1309.64597676	0	0	0
68.47000000	2031.30419355	1954.66995342	523.07329667	1303.90120051	1490.35674046	1286.66750091	1309.44988575	0	0	0
68.48000000	2035.22531806	1952.74551298	513.56482019	1303.37983597	1488.88118503	1282.82998875	1309.22005440	0	0	0
68.49000000	2038.02819075	1951.03262531	503.25196168	1302.94161882	1487.54017522	1279.56620951	1308.96013328	0	0	0
68.50000000	2039.78507735	1949.52056259	492.35337419	1302.58222613	1486.32492362	1276.84792407	1308.67377297	0	0	0
68.51000000	2040.56824354	1948.19859705	481.08771079	1302.29733499	1485.22664276	1274.64689328	1308.36462404	0	0	0
68.52000000	2040.44995503	1947.05600089	469.67362455	1302.08262246	1484.23654524	1272.93487804	1308.03633706	0	0	0
68.53000000	2039.50247753	1946.08204632	458.32976852	1301.93376562	1483.34584359	1271.68363920	1307.69256261	0	0	0
68.54000000	2037.79807673	1945.26600555	447.27479575	1301.84644155	1482.54575040	1270.86493764	1307.33695127	0	0	0
68.55000000	2035.40901834	1944.59715078	436.72735933	1301.81632733	1481.82747822	1270.45053422	1306.97315360	0	0	0
68.56000000	2032.40756806	1944.06475423	426.90611230	1301.83910002	1481.18223962	1270.41218983	1306.60482019	0	0	0
68.57000000	2028.86599160	1943.65808810	418.02970772	1301.91043671	1480.60124716	1270.72166533	1306.23560161	0	0	0
68.58000000	2024.85655465	1943.36642461	410.31679866	1302.02601446	1480.07571341	1271.35072158	1305.86914844	0	0	0
68.59000000	2020.45152293	1943.17903595	403.98603818	1302.18151036	1479.59685093	1272.27111948	1305.50911124	0	0	0
68.60000000	2015.72316212	1943.08519434	399.25607934	1302.37260148	1479.15587229	1273.45461987	1305.15914060	0	0	0
68.61000000	2010.74373794	1943.07417199	396.34557520	1302.59496489	1478.74399004	1274.87298364	1304.82288708	0	0	0
68.62000000	2005.58551609	1943.13524111	395.47317882	1302.84427767	1478.35241675	1276.49797166	1304.50400127	0	0	0
68.63000000	2000.32076227	1943.25767390	396.85754326	1303.11621690	1477.97236499	1278.30134479	1304.20613374	0	0	0
68.64000000	1995.02174218	1943.43074257	400.71732159	1303.40645965	1477.59504733	1280.25486392	1303.93293506	0	0	0
68.65000000	1989.76072153	1943.64371933	407.27116686	1303.71068299	1477.21167632	1282.33028990	1303.68805581	0	0	0
68.66000000	1984.60996602	1943.88587639	416.73773213	1304.02456401	1476.81346452	1284.49938361	1303.47514656	0	0	0
